<svg xmlns="http://www.w3.org/2000/svg" width="1440" height="420" viewBox="0 0 1440 420" role="img" aria-labelledby="title description">
  <title id="title">Shahzad Tanveer - Senior Full Stack, ERP, Cloud and Mobile Solutions Engineer</title>
  <desc id="description">Professional developer banner featuring enterprise ERP, cloud, mobile, and DevOps engineering.</desc>
  <defs>
    <linearGradient id="background" x1="0" y1="0" x2="1" y2="1"><stop offset="0" stop-color="#020617"/><stop offset="0.5" stop-color="#0b1120"/><stop offset="1" stop-color="#111827"/></linearGradient>
    <linearGradient id="accent" x1="0" y1="0" x2="1" y2="0"><stop offset="0" stop-color="#22d3ee"/><stop offset="0.5" stop-color="#3b82f6"/><stop offset="1" stop-color="#8b5cf6"/></linearGradient>
    <radialGradient id="glow" cx="50%" cy="50%" r="50%"><stop offset="0" stop-color="#2563eb" stop-opacity=".28"/><stop offset="1" stop-color="#2563eb" stop-opacity="0"/></radialGradient>
    <pattern id="grid" width="32" height="32" patternUnits="userSpaceOnUse"><path d="M32 0H0V32" fill="none" stroke="#38bdf8" stroke-opacity=".07"/></pattern>
    <filter id="shadow"><feGaussianBlur stdDeviation="8" result="blur"/><feMerge><feMergeNode in="blur"/><feMergeNode in="SourceGraphic"/></feMerge></filter>
  </defs>
  <rect width="1440" height="420" rx="28" fill="url(#background)"/><rect width="1440" height="420" rx="28" fill="url(#grid)"/><ellipse cx="720" cy="210" rx="520" ry="260" fill="url(#glow)"/>
  <g fill="none" stroke="url(#accent)" stroke-width="2" opacity=".55"><path d="M80 96h150l42 42h112"/><path d="M64 322h170l54-54h105"/><circle cx="80" cy="96" r="6" fill="#22d3ee"/><circle cx="393" cy="268" r="6" fill="#3b82f6"/><path d="M1060 112h108l44 44h158"/><path d="M1050 310h142l50-50h134"/><circle cx="1060" cy="112" r="6" fill="#8b5cf6"/><circle cx="1376" cy="260" r="6" fill="#22d3ee"/></g>
  <g opacity=".75" fill="none" stroke="#38bdf8" stroke-width="2"><rect x="104" y="150" width="86" height="58" rx="8"/><path d="M123 169l-13 10 13 10M171 169l13 10-13 10"/><ellipse cx="1285" cy="170" rx="54" ry="18"/><path d="M1231 170v60c0 10 24 18 54 18s54-8 54-18v-60M1231 200c0 10 24 18 54 18s54-8 54-18"/></g>
  <g text-anchor="middle" font-family="Segoe UI, Arial, sans-serif"><text x="720" y="172" fill="url(#accent)" font-size="64" font-weight="800" letter-spacing="3" filter="url(#shadow)">SHAHZAD TANVEER</text><text x="720" y="224" fill="#e2e8f0" font-size="23" font-weight="600" letter-spacing="1">SENIOR FULL STACK · ERP · CLOUD &amp; MOBILE ENGINEER</text><text x="720" y="272" fill="#94a3b8" font-size="18" letter-spacing="2">LARAVEL  •  REACT  •  FLUTTER  •  AWS  •  LINUX  •  DEVOPS</text></g>
  <g font-family="Segoe UI, Arial, sans-serif" font-size="14" font-weight="600" text-anchor="middle"><g transform="translate(356 326)"><rect width="145" height="34" rx="17" fill="#0f172a" stroke="#22d3ee" stroke-opacity=".55"/><text x="72.5" y="22" fill="#cbd5e1">LARAVEL · PHP</text></g><g transform="translate(519 326)"><rect width="140" height="34" rx="17" fill="#0f172a" stroke="#3b82f6" stroke-opacity=".55"/><text x="70" y="22" fill="#cbd5e1">PYTHON · APIs</text></g><g transform="translate(677 326)"><rect width="190" height="34" rx="17" fill="#0f172a" stroke="#6366f1" stroke-opacity=".55"/><text x="95" y="22" fill="#cbd5e1">FLUTTER · REACT NATIVE</text></g><g transform="translate(885 326)"><rect width="198" height="34" rx="17" fill="#0f172a" stroke="#8b5cf6" stroke-opacity=".55"/><text x="99" y="22" fill="#cbd5e1">AWS · LINUX · DOCKER · K8S</text></g></g>
  <rect x="1" y="1" width="1438" height="418" rx="27" fill="none" stroke="url(#accent)" stroke-opacity=".3" stroke-width="2"/>
</svg>